<svg xmlns="http://www.w3.org/2000/svg" xmlns:xlink="http://www.w3.org/1999/xlink" viewBox="0 0 259.94 80.42"><defs><style>.cls-1{fill:#fff;}.cls-2{isolation:isolate;}.cls-3{clip-path:url(#clip-path);}.cls-4{clip-path:url(#clip-path-2);}.cls-5{fill:#00ac5b;}.cls-6{clip-path:url(#clip-path-3);}</style><clipPath id="clip-path"><path class="cls-1" d="M18.45,44.09l8,1.42a32.49,32.49,0,0,1-11.59,15L6.86,59.09A32.52,32.52,0,0,0,18.45,44.09Z"/></clipPath><clipPath id="clip-path-2"><path class="cls-1" d="M14.88,14l7.94,1.41a32.48,32.48,0,0,1,5.72,18.07l-7.95-1.42A32.51,32.51,0,0,0,14.88,14Z"/></clipPath><clipPath id="clip-path-3"><path class="cls-1" d="M34.59,0l7.94,1.41a57,57,0,0,1,9.12,42.37A57.07,57.07,0,0,1,28.49,80.42L20.54,79A57.07,57.07,0,0,0,43.7,42.37,57.06,57.06,0,0,0,34.59,0Z"/></clipPath></defs><title>Asset 2</title><g id="Layer_2" data-name="Layer 2"><g id="Layer_1-2" data-name="Layer 1"><g id="Header"><g class="cls-2"><g class="cls-2"><path class="cls-1" d="M18.45,44.09l8,1.42a32.49,32.49,0,0,1-11.59,15L6.86,59.09A32.52,32.52,0,0,0,18.45,44.09Z"/><g class="cls-3"><g class="cls-2"><path class="cls-1" d="M18.45,44.09l8,1.42c-.34.89-.72,1.76-1.13,2.61l-7.95-1.41c.41-.85.79-1.72,1.13-2.62"/><path class="cls-1" d="M17.32,46.71l8,1.41a31.57,31.57,0,0,1-1.88,3.37l-7.94-1.42a32.14,32.14,0,0,0,1.87-3.36"/><path class="cls-1" d="M15.45,50.07l7.94,1.42a32.66,32.66,0,0,1-2.81,3.77l-7.95-1.41a35,35,0,0,0,2.82-3.78"/><path class="cls-1" d="M12.63,53.85l7.95,1.41a32.91,32.91,0,0,1-5.77,5.24L6.86,59.09a32.21,32.21,0,0,0,5.77-5.24"/></g></g></g><g class="cls-2"><path class="cls-1" d="M14.88,14l7.94,1.41a32.48,32.48,0,0,1,5.72,18.07l-7.95-1.42A32.51,32.51,0,0,0,14.88,14Z"/><g class="cls-4"><g class="cls-2"><path class="cls-1" d="M14.88,14l7.94,1.41a32.54,32.54,0,0,1,4.47,9.47l-7.95-1.41A32.78,32.78,0,0,0,14.88,14"/><path class="cls-1" d="M19.34,23.46l8,1.41a32.84,32.84,0,0,1,1.07,5.52L20.41,29a32.73,32.73,0,0,0-1.07-5.51"/><path class="cls-1" d="M20.41,29l8,1.42c.11,1,.17,2,.18,3.08l-7.95-1.42c0-1-.07-2.06-.18-3.08"/></g></g></g><polygon class="cls-1" points="20.59 32.05 28.54 33.47 40.46 35.59 32.51 34.17 20.59 32.05"/><path class="cls-5" d="M34.59,0A57.06,57.06,0,0,1,43.7,42.37,57.07,57.07,0,0,1,20.54,79L13.67,69a44.64,44.64,0,0,0,16.7-22.8L18.45,44.09a32.52,32.52,0,0,1-11.59,15L0,49.1a20.33,20.33,0,0,0,8.24-13A20.34,20.34,0,0,0,5,21l9.88-7a32.51,32.51,0,0,1,5.71,18.06l11.92,2.12A44.68,44.68,0,0,0,24.69,7Z"/><g class="cls-2"><path class="cls-1" d="M34.59,0l7.94,1.41a57,57,0,0,1,9.12,42.37A57.07,57.07,0,0,1,28.49,80.42L20.54,79A57.07,57.07,0,0,0,43.7,42.37,57.06,57.06,0,0,0,34.59,0Z"/><g class="cls-6"><g class="cls-2"><path class="cls-1" d="M34.59,0l7.94,1.41A57.26,57.26,0,0,1,50.34,18l-8-1.41A57.23,57.23,0,0,0,34.59,0"/><path class="cls-1" d="M42.39,16.57l8,1.41a56.87,56.87,0,0,1,1.89,9.69l-7.95-1.41a56.87,56.87,0,0,0-1.89-9.69"/><path class="cls-1" d="M44.28,26.26l7.95,1.41a56.58,56.58,0,0,1,.3,7.27l-8-1.42a56.5,56.5,0,0,0-.3-7.26"/><path class="cls-1" d="M44.58,33.52l8,1.42a57.83,57.83,0,0,1-.5,6.4l-8-1.41a55.85,55.85,0,0,0,.5-6.41"/><path class="cls-1" d="M44.08,39.93l8,1.41c-.11.81-.23,1.63-.38,2.44-.21,1.21-.46,2.39-.75,3.57L43,45.93c.29-1.17.54-2.36.75-3.56.15-.82.27-1.63.38-2.44"/><path class="cls-1" d="M43,45.93l7.95,1.42a57.21,57.21,0,0,1-1.71,5.72l-7.95-1.41A56.62,56.62,0,0,0,43,45.93"/><path class="cls-1" d="M41.24,51.66l7.95,1.41a56.85,56.85,0,0,1-2.37,5.67l-8-1.42a55.34,55.34,0,0,0,2.37-5.66"/><path class="cls-1" d="M38.87,57.32l8,1.42a56.07,56.07,0,0,1-3.29,5.88l-8-1.41a54.47,54.47,0,0,0,3.29-5.89"/><path class="cls-1" d="M35.58,63.21l8,1.41a57.63,57.63,0,0,1-4.94,6.63l-8-1.41a57.63,57.63,0,0,0,4.94-6.63"/><path class="cls-1" d="M30.64,69.84l8,1.41a57.37,57.37,0,0,1-10.1,9.17L20.54,79a57.37,57.37,0,0,0,10.1-9.17"/></g></g></g></g><path class="cls-1" d="M70.34,58.55l.06-40.09h8.1l0,15.78,15.87,0,0-15.78h8.09l0,40.1-8.1,0,0-17.53L78.46,41l0,17.53Z"/><path class="cls-1" d="M127.55,49.39l7.65,1.29a12.57,12.57,0,0,1-4.67,6.41,13.62,13.62,0,0,1-8,2.19q-7.58,0-11.2-5a16.58,16.58,0,0,1-2.86-10q0-7.21,3.79-11.3a12.42,12.42,0,0,1,9.55-4.08q6.48,0,10.22,4.3c2.5,2.85,3.69,7.23,3.57,13.11l-19.26,0a7.78,7.78,0,0,0,1.86,5.32,5.83,5.83,0,0,0,4.42,1.91,4.74,4.74,0,0,0,3-1A6.16,6.16,0,0,0,127.55,49.39Zm.45-7.77a7.43,7.43,0,0,0-1.72-5.07,5.53,5.53,0,0,0-8.15.08,7,7,0,0,0-1.62,5Z"/><path class="cls-1" d="M141.87,58.65l0-35.85,7.69-4.23-.06,40.09Z"/><path class="cls-1" d="M155.9,29.63h7.17V33.9a10.76,10.76,0,0,1,3.78-3.55A10.54,10.54,0,0,1,172.12,29a11.09,11.09,0,0,1,8.58,4q3.53,4,3.52,11.06,0,7.28-3.58,11.3a11,11,0,0,1-8.62,4,9.76,9.76,0,0,1-4.36-1,14.81,14.81,0,0,1-4.11-3.29l-.07,16.95-7.65,4.43Zm7.58,14c0,3.26.64,5.67,1.94,7.24a5.91,5.91,0,0,0,4.72,2.34,5.58,5.58,0,0,0,4.47-2.14c1.18-1.43,1.78-3.78,1.78-7q0-4.57-1.82-6.79A5.71,5.71,0,0,0,170,35.06a5.91,5.91,0,0,0-4.68,2.17C164.11,38.68,163.49,40.82,163.48,43.67Z"/><path class="cls-1" d="M207.13,49.5l7.65,1.3a12.53,12.53,0,0,1-4.67,6.4,13.61,13.61,0,0,1-8,2.19q-7.59,0-11.21-5a16.62,16.62,0,0,1-2.86-10q0-7.23,3.79-11.31A12.45,12.45,0,0,1,201.41,29q6.48,0,10.22,4.3t3.57,13.12l-19.26,0a7.76,7.76,0,0,0,1.86,5.32,5.8,5.8,0,0,0,4.43,1.91,4.67,4.67,0,0,0,3-1A6.12,6.12,0,0,0,207.13,49.5Zm.45-7.77a7.45,7.45,0,0,0-1.72-5.07,5.55,5.55,0,0,0-8.15.08,7.06,7.06,0,0,0-1.62,5Z"/><path class="cls-1" d="M228.8,58.78h-7.68l0-29.05h7.14v4.13a12.31,12.31,0,0,1,3.3-3.85,6.1,6.1,0,0,1,3.33-.93A9.69,9.69,0,0,1,240,30.54l-2.38,6.7A6.78,6.78,0,0,0,234,36a4.29,4.29,0,0,0-2.74.89,6,6,0,0,0-1.77,3.21q-.65,2.32-.65,9.73Z"/><path class="cls-1" d="M259.35,29.77V35.9h-5.25l0,11.71a29.11,29.11,0,0,0,.15,4.14,1.65,1.65,0,0,0,.68,1,2.15,2.15,0,0,0,1.3.39,10,10,0,0,0,3.09-.74l.65,6a15.38,15.38,0,0,1-6.07,1.14,9.71,9.71,0,0,1-3.75-.7A5.6,5.6,0,0,1,247.67,57a7.28,7.28,0,0,1-1.07-3,36.7,36.7,0,0,1-.24-5.42l0-12.66h-3.53V29.75h3.53V24l7.72-4.47V29.77Z"/></g></g></g></svg>